<svg xmlns="http://www.w3.org/2000/svg" viewBox="0 0 180.11 76.37"><defs><style>.cls-1{fill:#02243a;}</style></defs><g id="Layer_2" data-name="Layer 2"><g id="Layer_1-2" data-name="Layer 1"><path class="cls-1" d="M60,24.08c.51.16,1,.31,1.63.46A64.42,64.42,0,0,0,73.77,26l54.7-22L109.11,23.6c6.22-1,12.15-2.12,17.62-3.42l4.2-17.42Z"/><path class="cls-1" d="M14.3,53l.5,10H9.47Zm-2.41-3.92L0,71.12H5.33l2.24-4.41H15l.38,4.41h5.33L18.37,49.05Z"/><polygon class="cls-1" points="21.22 55.06 25.87 55.06 26.38 64.54 30.97 55.06 35.62 55.06 27.2 71.12 22.72 71.12 21.22 55.06"/><path class="cls-1" d="M36,71.46c-2.79,0-4.2-1.78-3.63-4.44.78-3.56,4.23-5.74,10.36-6.47L43,59.28c.2-.94-.53-1.63-2-1.63a8.92,8.92,0,0,0-4.53,1.63l-1.67-2.5a12.7,12.7,0,0,1,7.1-2.08c4.48,0,6.42,1.87,5.64,5.52L46,67.13a.76.76,0,0,0,.46,1l0,0h.13L46,71.27c-.26,0-.53,0-.79,0-1.94,0-3.12-.63-3.69-2A9.19,9.19,0,0,1,36,71.46m1-5.19a1.48,1.48,0,0,0,.86,1.91,1.6,1.6,0,0,0,.65.09c1.53,0,2.76-1.15,3.24-3.38l.4-1.87c-2.92.33-4.81,1.69-5.16,3.29"/><polygon class="cls-1" points="52.12 48.48 56.84 48.48 51.96 71.12 47.24 71.12 52.12 48.48"/><path class="cls-1" d="M60.24,71.46c-4.75,0-6.57-2.29-5.55-7l.58-2.72c1-4.74,3.83-7,8.58-7s6.57,2.29,5.55,7l-.58,2.72c-1,4.74-3.82,7-8.58,7M61,68.11c2.21,0,2.59-1.63,3.33-5s1-5-1.16-5-2.62,1.6-3.36,5-1,5,1.19,5"/><path class="cls-1" d="M72.11,55.06H76.8l-.66,3c2.26-2.29,4.27-3.41,6.37-3.41,2.41,0,3.55,1.36,3,3.86L82.8,71.12H78.11l2.16-10c.39-1.81.37-2.51-1-2.51a6.53,6.53,0,0,0-3.54,1.6L73.32,71.12H68.64Z"/><path class="cls-1" d="M102.36,66.71H94.89l-2.24,4.41H87.32L99.21,49.05h6.49l2.41,22.07h-5.33ZM102.11,63l-.5-10L96.78,63Z"/><path class="cls-1" d="M111.11,55.06h4.72l-3.46,16.06h-4.76Zm1.38-6.6h4.72l-.78,3.62h-4.72Z"/><path class="cls-1" d="M117.59,55.06h4.35l-.75,3.47c2.19-2.6,4.2-3.44,6.25-3.53l-1.11,5.19a10.12,10.12,0,0,0-5.49,1.51l-2,9.42h-4.73Z"/><path class="cls-1" d="M128.53,55.06h4.75l-.6,2.81c2.11-2.23,3.81-3.17,6.15-3.17,3.9,0,3.88,2.48,2.64,8.21s-2.24,8.21-6.25,8.21c-2.27,0-3.57-.94-4.72-3.17l-1.81,8.42h-4.75Zm2.34,11.23a6.3,6.3,0,0,0,2.94,1.17c1.83,0,2.21-1.45,2.88-4.56s.91-4.56-.92-4.56a9.19,9.19,0,0,0-3.45,1.18Z"/><path class="cls-1" d="M147.57,71.46c-4.76,0-6.57-2.29-5.55-7l.59-2.72c1-4.74,3.82-7,8.58-7s6.57,2.29,5.55,7l-.63,2.72c-1,4.74-3.83,7-8.58,7m.72-3.35c2.21,0,2.59-1.63,3.33-5s1-5-1.15-5-2.62,1.6-3.36,5-1,5,1.19,5"/><path class="cls-1" d="M159.18,55.06h4.35l-.75,3.47c2.22-2.6,4.15-3.44,6.22-3.54l-1.06,5.19a10.12,10.12,0,0,0-5.49,1.51l-2,9.42h-4.69Z"/><path class="cls-1" d="M176.84,67.86h.65l-.77,3.56c-.73.06-1.41.06-2,.06-4.65,0-5.86-1.48-5-5.4l1.71-7.94h-2.65l.66-3h2.67l1.24-5.77h4.72l-1.24,5.77h3.28l-.66,3h-3.29l-1.38,6.32c-.53,2.48-.25,3.35,2.06,3.35"/><path class="cls-1" d="M97.48,2.06c5.86-.89,11.56-1.56,17-2,1.16-.1,1.32-.06.24.06-3.23.35-6.56.79-10,1.3-29.15,4.44-52,13.34-51,19.87s25.46,8.17,54.61,3.76,52-13.34,51-19.87a4.19,4.19,0,0,0-2.27-2.8c3.7,1.36,5.93,3.15,6.26,5.33,1.29,8.46-26.09,19.66-61.17,25s-64.6,2.83-65.89-5.63,26.1-19.67,61.17-25"/></g></g></svg>