<svg id="Layer_1" xmlns="http://www.w3.org/2000/svg" width="112" height="30" viewBox="0 0 112 30"><path fill="none" d="M0 0h112v30H0z"/><path d="M34.62 14.368h-2.636v5.67c0 1.026.603 1.252 1.532 1.252.352 0 .728-.05 1.104-.05v3.136c-.777.026-1.556.126-2.333.126-3.638 0-4.566-1.053-4.566-4.592v-5.542h-2.157v-2.862h2.158v-4.09h4.265v4.09h2.635v2.862zM56.092 14.368h-2.636v5.67c0 1.026.603 1.252 1.53 1.252.353 0 .73-.05 1.105-.05v3.136c-.778.026-1.556.126-2.333.126-3.64 0-4.566-1.053-4.566-4.592v-5.542h-2.157v-2.862h2.158v-4.09h4.266v4.09h2.636v2.862zM11.897 18.96c0 3.808-1.952 5.733-5.95 5.733-4.495 0-5.947-2.59-5.947-6.377v-.736h4.164v1.57c0 1.12.62 1.736 1.713 1.736 1.024 0 1.595-.57 1.595-2.213V7.35h4.426v11.61zM16.59 18.898c.073 1.767 1.093 2.935 2.885 2.935 1.02 0 2.015-.472 2.413-1.416h3.954c-.77 2.983-3.53 4.276-6.417 4.276-4.202 0-7.064-2.535-7.064-6.864 0-3.955 3.16-6.79 6.965-6.79 4.627 0 6.94 3.482 6.742 7.858H16.59zm5.247-2.362c-.074-1.44-1.094-2.637-2.513-2.637-1.492 0-2.487 1.068-2.735 2.636h5.247zM38.775 20.08c0 .646.273 1.115.695 1.438.396.3.97.447 1.563.447.82 0 1.985-.348 1.985-1.365 0-.99-1.316-1.188-2.06-1.363-2.655-.67-5.98-.743-5.98-4.218 0-3.102 3.35-3.946 5.88-3.946 2.828 0 5.78.82 5.93 4.17h-3.895c0-.546-.2-.894-.546-1.12-.346-.22-.818-.32-1.34-.32-.695 0-1.812.074-1.812.97 0 1.213 2.827 1.437 4.764 1.86 2.604.52 3.273 2.404 3.273 3.473 0 3.447-3.274 4.59-6.178 4.59-3.052 0-6.177-1.018-6.3-4.614l4.02-.003zM56.863 15.44c.074-1.684.865-2.772 2.003-3.44 1.14-.644 2.624-.892 4.085-.892 3.044 0 5.987.67 5.987 4.306v5.62c0 1.087 0 2.274.496 3.29H65.2c-.145-.396-.196-.793-.245-1.213-1.09 1.14-2.698 1.583-4.23 1.583-2.45 0-4.38-1.236-4.38-3.885 0-4.184 4.552-3.86 7.472-4.453.718-.148 1.115-.396 1.115-1.188 0-.966-1.164-1.337-2.03-1.337-1.163 0-1.904.52-2.105 1.61h-3.934zm5.444 6.656c2.006 0 2.674-1.138 2.574-3.785-.593.372-1.683.445-2.598.692-.94.223-1.732.62-1.732 1.635 0 1.04.817 1.46 1.757 1.46zM75.42 11.88c-.645.423-1.145 1.038-1.447 1.84h-.05v-2.26h-4.095v12.877h4.22v-6.375c0-1.61 1.09-3.052 3.173-3.052.483 0 .917.074 1.37.188l-3.17-3.217z"/><path fill="#FF5111" d="M93.962 0l.55 8.83h12.195l-11.68 7.73 2.577 12.745-9.93-8.62-13.363 6.936 7.97-10.923-7.557-7.868h12.23z"/></svg>